<svg width="32" height="34" viewBox="0 0 32 34" fill="none" xmlns="http://www.w3.org/2000/svg">
<path d="M23.8672 23.6667C22.5362 25.0053 20.8858 25.9823 19.072 26.5055V23.98C20.9809 23.258 22.5777 21.8921 23.5868 20.1181C24.5958 18.3442 24.9538 16.2736 24.5988 14.2639C24.2439 12.2541 23.1983 10.4314 21.6426 9.11044C20.087 7.78948 18.1189 7.05318 16.0782 7.02869C14.0375 7.0042 12.0523 7.69306 10.4654 8.97632C8.87847 10.2596 7.78946 12.0567 7.38638 14.0573C6.98331 16.058 7.29148 18.1366 8.25768 19.9342C9.22388 21.7318 10.7875 23.1357 12.6784 23.9033V26.448C10.3432 25.7301 8.3074 24.2669 6.88264 22.2823C5.45787 20.2976 4.72257 17.9009 4.78925 15.4587C4.85593 13.0165 5.72092 10.6634 7.25186 8.75943C8.7828 6.85548 10.8954 5.50556 13.2663 4.91621C15.6373 4.32686 18.136 4.53054 20.3802 5.49608C22.6245 6.46163 24.4905 8.13586 25.6929 10.2626C26.8953 12.3893 27.3678 14.8515 27.0381 17.2722C26.7084 19.693 25.5946 21.939 23.8672 23.6667ZM29.9412 9.86454C28.9285 7.46801 27.3164 5.37224 25.2598 3.77864C23.2033 2.18504 20.7714 1.14718 18.198 0.764814C15.6245 0.382447 12.9959 0.668423 10.5649 1.59526C8.13387 2.52209 5.98209 4.05863 4.31636 6.0572C2.65062 8.05577 1.52694 10.4492 1.05329 13.0074C0.579647 15.5657 0.771961 18.2027 1.61175 20.6652C2.45155 23.1276 3.91059 25.3327 5.84865 27.0685C7.78672 28.8042 10.1387 30.0123 12.6784 30.5766V28.1103C9.68 27.3084 7.07685 25.4406 5.35673 22.8571C3.6366 20.2735 2.91754 17.1513 3.33426 14.0756C3.75098 10.9999 5.27489 8.18166 7.62047 6.14893C9.96605 4.1162 12.9723 3.00848 16.0761 3.03331C19.1798 3.05814 22.168 4.21382 24.4807 6.28381C26.7935 8.35381 28.2721 11.1961 28.6396 14.2781C29.007 17.3601 28.2381 20.4703 26.4769 23.026C24.7156 25.5817 22.0829 27.4076 19.072 28.1614V30.6262C22.4844 29.9163 25.5477 28.0519 27.7459 25.3471C29.9441 22.6423 31.1428 19.2624 31.14 15.777C31.1431 13.7457 30.7359 11.7346 29.9428 9.86454H29.9412ZM17.1795 22.0779L17.1364 33.5353H14.7388L14.7803 22.0907C13.2171 21.7923 11.8213 20.9216 10.8659 19.6489C9.91049 18.3761 9.46407 16.7928 9.61394 15.2084C9.7638 13.624 10.4992 12.1525 11.6763 11.0815C12.8534 10.0104 14.3877 9.4169 15.9791 9.4169C17.5706 9.4169 19.1048 10.0104 20.282 11.0815C21.4591 12.1525 22.1945 13.624 22.3443 15.2084C22.4942 16.7928 22.0478 18.3761 21.0924 19.6489C20.1369 20.9216 18.7412 21.7923 17.1779 22.0907L17.1795 22.0779ZM19.9639 15.7994C19.9639 15.0091 19.7296 14.2365 19.2905 13.5793C18.8514 12.9222 18.2273 12.41 17.4971 12.1076C16.767 11.8051 15.9635 11.726 15.1884 11.8802C14.4132 12.0344 13.7012 12.415 13.1423 12.9738C12.5835 13.5327 12.2029 14.2447 12.0487 15.0198C11.8945 15.795 11.9737 16.5984 12.2761 17.3286C12.5786 18.0588 13.0907 18.6829 13.7479 19.122C14.405 19.5611 15.1776 19.7954 15.9679 19.7954C16.4928 19.7956 17.0126 19.6924 17.4976 19.4917C17.9826 19.291 18.4233 18.9967 18.7946 18.6256C19.1658 18.2545 19.4603 17.8139 19.6612 17.329C19.8621 16.8441 19.9655 16.3243 19.9655 15.7994H19.9639Z" fill="white"/>
</svg>
